M48
; DRILL file KiCad 10.0.4 date 2026-07-15T15:03:03
; FORMAT={-:-/ absolute / metric / decimal}
; #@! TF.CreationDate,2026-07-15T15:03:03-04:00
; #@! TF.GenerationSoftware,Kicad,Pcbnew,10.0.4
; #@! TF.FileFunction,Plated,1,2,PTH
FMAT,2
METRIC
; #@! TA.AperFunction,Plated,PTH,ComponentDrill
T1C1.000
; #@! TA.AperFunction,Plated,PTH,ComponentDrill
T2C1.500
%
G90
G05
T1
X94.5Y-70.5
X94.5Y-73.04
X94.5Y-75.58
X94.5Y-78.12
X152.92Y-92.81
X152.92Y-95.35
X155.46Y-92.81
X155.46Y-95.35
X158.0Y-92.81
X158.0Y-95.35
X160.54Y-92.81
X160.54Y-95.35
X163.08Y-92.81
X163.08Y-95.35
X165.62Y-92.81
X165.62Y-95.35
X168.16Y-92.81
X168.16Y-95.35
T2
X99.69Y-110.77
X106.04Y-108.23
X125.19Y-110.77
X131.54Y-108.23
X151.69Y-110.77
X158.04Y-108.23
M30
