%TF.GenerationSoftware,KiCad,Pcbnew,10.0.4*%
%TF.CreationDate,2026-07-15T15:02:28-04:00*%
%TF.ProjectId,STARDANCE-HACKPAD,53544152-4441-44e4-9345-2d4841434b50,rev?*%
%TF.SameCoordinates,Original*%
%TF.FileFunction,Soldermask,Top*%
%TF.FilePolarity,Negative*%
%FSLAX46Y46*%
G04 Gerber Fmt 4.6, Leading zero omitted, Abs format (unit mm)*
G04 Created by KiCad (PCBNEW 10.0.4) date 2026-07-15 15:02:28*
%MOMM*%
%LPD*%
G01*
G04 APERTURE LIST*
G04 Aperture macros list*
%AMRoundRect*
0 Rectangle with rounded corners*
0 $1 Rounding radius*
0 $2 $3 $4 $5 $6 $7 $8 $9 X,Y pos of 4 corners*
0 Add a 4 corners polygon primitive as box body*
4,1,4,$2,$3,$4,$5,$6,$7,$8,$9,$2,$3,0*
0 Add four circle primitives for the rounded corners*
1,1,$1+$1,$2,$3*
1,1,$1+$1,$4,$5*
1,1,$1+$1,$6,$7*
1,1,$1+$1,$8,$9*
0 Add four rect primitives between the rounded corners*
20,1,$1+$1,$2,$3,$4,$5,0*
20,1,$1+$1,$4,$5,$6,$7,0*
20,1,$1+$1,$6,$7,$8,$9,0*
20,1,$1+$1,$8,$9,$2,$3,0*%
G04 Aperture macros list end*
%ADD10RoundRect,0.205000X-0.470000X-0.205000X0.470000X-0.205000X0.470000X0.205000X-0.470000X0.205000X0*%
%ADD11R,1.700000X1.700000*%
%ADD12C,1.700000*%
%ADD13C,4.000000*%
%ADD14C,2.200000*%
G04 APERTURE END LIST*
D10*
%TO.C,D3*%
X125775000Y-126560000D03*
X125775000Y-125060000D03*
X131225000Y-125060000D03*
X131225000Y-126560000D03*
%TD*%
D11*
%TO.C,J1*%
X94500000Y-70500000D03*
D12*
X94500000Y-73040000D03*
X94500000Y-75580000D03*
X94500000Y-78120000D03*
%TD*%
D10*
%TO.C,D2*%
X153275000Y-126560000D03*
X153275000Y-125060000D03*
X158725000Y-125060000D03*
X158725000Y-126560000D03*
%TD*%
D13*
%TO.C,SW4*%
X155500000Y-113310000D03*
D14*
X158040000Y-108230000D03*
X151690000Y-110770000D03*
%TD*%
D13*
%TO.C,SW2*%
X103500000Y-113310000D03*
D14*
X106040000Y-108230000D03*
X99690000Y-110770000D03*
%TD*%
D10*
%TO.C,D1*%
X101775000Y-126560000D03*
X101775000Y-125060000D03*
X107225000Y-125060000D03*
X107225000Y-126560000D03*
%TD*%
D13*
%TO.C,SW3*%
X129000000Y-113310000D03*
D14*
X131540000Y-108230000D03*
X125190000Y-110770000D03*
%TD*%
D11*
%TO.C,U1*%
X168160000Y-92810000D03*
D12*
X168160000Y-95350000D03*
X165620000Y-92810000D03*
X165620000Y-95350000D03*
X163080000Y-92810000D03*
X163080000Y-95350000D03*
X160540000Y-92810000D03*
X160540000Y-95350000D03*
X158000000Y-92810000D03*
X158000000Y-95350000D03*
X155460000Y-92810000D03*
X155460000Y-95350000D03*
X152920000Y-92810000D03*
X152920000Y-95350000D03*
%TD*%
M02*
