%TF.GenerationSoftware,KiCad,Pcbnew,10.0.4*%
%TF.CreationDate,2026-07-13T15:54:16-04:00*%
%TF.ProjectId,STARDANCE-HACKPAD,53544152-4441-44e4-9345-2d4841434b50,rev?*%
%TF.SameCoordinates,Original*%
%TF.FileFunction,Copper,L2,Bot*%
%TF.FilePolarity,Positive*%
%FSLAX46Y46*%
G04 Gerber Fmt 4.6, Leading zero omitted, Abs format (unit mm)*
G04 Created by KiCad (PCBNEW 10.0.4) date 2026-07-13 15:54:16*
%MOMM*%
%LPD*%
G01*
G04 APERTURE LIST*
%TA.AperFunction,ComponentPad*%
%ADD10R,1.700000X1.700000*%
%TD*%
%TA.AperFunction,ComponentPad*%
%ADD11C,1.700000*%
%TD*%
%TA.AperFunction,ComponentPad*%
%ADD12C,2.200000*%
%TD*%
%TA.AperFunction,Conductor*%
%ADD13C,0.200000*%
%TD*%
G04 APERTURE END LIST*
D10*
%TO.P,J1,1,Pin_1_1*%
%TO.N,GND*%
X94500000Y-70500000D03*
D11*
%TO.P,J1,2,Pin_2_2*%
%TO.N,+3.3V*%
X94500000Y-73040000D03*
%TO.P,J1,3,Pin_3_3*%
%TO.N,/SCL*%
X94500000Y-75580000D03*
%TO.P,J1,4,Pin_4_4*%
%TO.N,/SDA*%
X94500000Y-78120000D03*
%TD*%
D12*
%TO.P,SW4,1,1_1*%
%TO.N,/B3*%
X158040000Y-108230000D03*
%TO.P,SW4,2,2_2*%
%TO.N,GND*%
X151690000Y-110770000D03*
%TD*%
%TO.P,SW2,1,1_1*%
%TO.N,/B1*%
X106040000Y-108230000D03*
%TO.P,SW2,2,2_2*%
%TO.N,GND*%
X99690000Y-110770000D03*
%TD*%
D10*
%TO.P,U1,1,PA02_A0_D0_1*%
%TO.N,/B1*%
X168160000Y-92810000D03*
D11*
%TO.P,U1,2,PA4_A1_D1_2*%
%TO.N,/B2*%
X168160000Y-95350000D03*
%TO.P,U1,3,PA10_A2_D2_3*%
%TO.N,/B3*%
X165620000Y-92810000D03*
%TO.P,U1,4,PA11_A3_D3_4*%
%TO.N,/SCL*%
X165620000Y-95350000D03*
%TO.P,U1,5,PA8_A4_D4_SDA_5*%
%TO.N,/SDA*%
X163080000Y-92810000D03*
%TO.P,U1,6,PA9_A5_D5_SCL_6*%
%TO.N,unconnected-(U1-PA9_A5_D5_SCL-Pad6)*%
X163080000Y-95350000D03*
%TO.P,U1,7,PB08_A6_D6_TX_7*%
%TO.N,/LEDDATA*%
X160540000Y-92810000D03*
%TO.P,U1,8,PB09_A7_D7_RX_8*%
%TO.N,unconnected-(U1-PB09_A7_D7_RX-Pad8)*%
X160540000Y-95350000D03*
%TO.P,U1,9,PA7_A8_D8_SCK_9*%
%TO.N,unconnected-(U1-PA7_A8_D8_SCK-Pad9)*%
X158000000Y-92810000D03*
%TO.P,U1,10,PA5_A9_D9_MISO_10*%
%TO.N,unconnected-(U1-PA5_A9_D9_MISO-Pad10)*%
X158000000Y-95350000D03*
%TO.P,U1,11,PA6_A10_D10_MOSI_11*%
%TO.N,unconnected-(U1-PA6_A10_D10_MOSI-Pad11)*%
X155460000Y-92810000D03*
%TO.P,U1,12,3V3_12*%
%TO.N,+3.3V*%
X155460000Y-95350000D03*
%TO.P,U1,13,GND_13*%
%TO.N,GND*%
X152920000Y-92810000D03*
%TO.P,U1,14,5V_14*%
%TO.N,+5V*%
X152920000Y-95350000D03*
%TD*%
D12*
%TO.P,SW3,1,1_1*%
%TO.N,/B2*%
X131540000Y-108230000D03*
%TO.P,SW3,2,2_2*%
%TO.N,GND*%
X125190000Y-110770000D03*
%TD*%
%TO.N,GND*%
D13*
X130610000Y-70500000D02*
X94500000Y-70500000D01*
X152920000Y-92810000D02*
X130610000Y-70500000D01*
X169256346Y-91660000D02*
X169710000Y-92113654D01*
X166096346Y-93960000D02*
X167010000Y-93046346D01*
X163796346Y-91660000D02*
X164470000Y-92333654D01*
X167010000Y-91660000D02*
X169256346Y-91660000D01*
X151690000Y-110770000D02*
X153413654Y-110770000D01*
X165143654Y-93960000D02*
X166096346Y-93960000D01*
X164470000Y-93286346D02*
X165143654Y-93960000D01*
X167683654Y-96500000D02*
X168636346Y-96500000D01*
X125190000Y-110770000D02*
X151690000Y-110770000D01*
X169710000Y-92113654D02*
X169710000Y-95426346D01*
X153413654Y-110770000D02*
X167683654Y-96500000D01*
X167010000Y-93046346D02*
X167010000Y-91660000D01*
X94500000Y-70500000D02*
X94690000Y-70310000D01*
X152920000Y-92810000D02*
X154070000Y-91660000D01*
X154070000Y-91660000D02*
X163796346Y-91660000D01*
X164470000Y-92333654D02*
X164470000Y-93286346D01*
X168636346Y-96500000D02*
X169710000Y-95426346D01*
%TO.N,+3.3V*%
X94500000Y-73040000D02*
X118770000Y-97310000D01*
X156500000Y-96390000D02*
X155460000Y-95350000D01*
X118770000Y-97310000D02*
X156500000Y-97310000D01*
X156500000Y-97310000D02*
X156500000Y-96390000D01*
%TO.N,/SCL*%
X108500000Y-101810000D02*
X90000000Y-83310000D01*
X159160000Y-101810000D02*
X108500000Y-101810000D01*
X90000000Y-83310000D02*
X90000000Y-80080000D01*
X90000000Y-80080000D02*
X94500000Y-75580000D01*
X165620000Y-95350000D02*
X159160000Y-101810000D01*
%TO.N,/SDA*%
X114090000Y-97710000D02*
X160046346Y-97710000D01*
X160046346Y-97710000D02*
X161930000Y-95826346D01*
X161930000Y-93960000D02*
X163080000Y-92810000D01*
X161930000Y-95826346D02*
X161930000Y-93960000D01*
X94500000Y-78120000D02*
X114090000Y-97710000D01*
%TO.N,/B3*%
X165620000Y-83690000D02*
X165620000Y-92810000D01*
X158040000Y-108230000D02*
X175500000Y-108230000D01*
X166000000Y-82810000D02*
X166000000Y-83310000D01*
X175500000Y-82810000D02*
X166000000Y-82810000D01*
X166000000Y-83310000D02*
X165620000Y-83690000D01*
X175500000Y-82810000D02*
X175500000Y-108230000D01*
%TO.N,/B1*%
X166770000Y-95826346D02*
X155766346Y-106830000D01*
X155766346Y-106830000D02*
X107440000Y-106830000D01*
X107440000Y-106830000D02*
X106040000Y-108230000D01*
X166770000Y-94200000D02*
X166770000Y-95826346D01*
X168160000Y-92810000D02*
X166770000Y-94200000D01*
%TO.N,/B2*%
X155280000Y-108230000D02*
X131040000Y-108230000D01*
X168160000Y-95350000D02*
X155280000Y-108230000D01*
%TD*%
%TA.AperFunction,Conductor*%
%TO.N,GND*%
G36*
X174842539Y-83430185D02*
G01*
X174888294Y-83482989D01*
X174899500Y-83534500D01*
X174899500Y-107505500D01*
X174879815Y-107572539D01*
X174827011Y-107618294D01*
X174775500Y-107629500D01*
X159606300Y-107629500D01*
X159539261Y-107609815D01*
X159495815Y-107561795D01*
X159408870Y-107391155D01*
X159389952Y-107365117D01*
X159260798Y-107187350D01*
X159260794Y-107187345D01*
X159082654Y-107009205D01*
X159082649Y-107009201D01*
X158878848Y-106861132D01*
X158878847Y-106861131D01*
X158878845Y-106861130D01*
X158808747Y-106825413D01*
X158654383Y-106746760D01*
X158414785Y-106668910D01*
X158384946Y-106664184D01*
X158165962Y-106629500D01*
X158029096Y-106629500D01*
X157962057Y-106609815D01*
X157916302Y-106557011D01*
X157906358Y-106487853D01*
X157935383Y-106424297D01*
X157941415Y-106417819D01*
X162184860Y-102174374D01*
X167675479Y-96683755D01*
X167736800Y-96650272D01*
X167801476Y-96653507D01*
X167843757Y-96667246D01*
X168053713Y-96700500D01*
X168053714Y-96700500D01*
X168266286Y-96700500D01*
X168266287Y-96700500D01*
X168476243Y-96667246D01*
X168678412Y-96601557D01*
X168867816Y-96505051D01*
X168895164Y-96485182D01*
X169039786Y-96380109D01*
X169039788Y-96380106D01*
X169039792Y-96380104D01*
X169190104Y-96229792D01*
X169190106Y-96229788D01*
X169190109Y-96229786D01*
X169315048Y-96057820D01*
X169315047Y-96057820D01*
X169315051Y-96057816D01*
X169411557Y-95868412D01*
X169477246Y-95666243D01*
X169510500Y-95456287D01*
X169510500Y-95243713D01*
X169477246Y-95033757D01*
X169411557Y-94831588D01*
X169315051Y-94642184D01*
X169315049Y-94642181D01*
X169315048Y-94642179D01*
X169190109Y-94470213D01*
X169076569Y-94356673D01*
X169043084Y-94295350D01*
X169048068Y-94225658D01*
X169089940Y-94169725D01*
X169120915Y-94152810D01*
X169252331Y-94103796D01*
X169367546Y-94017546D01*
X169453796Y-93902331D01*
X169504091Y-93767483D01*
X169510500Y-93707873D01*
X169510499Y-91912128D01*
X169504091Y-91852517D01*
X169502810Y-91849083D01*
X169453797Y-91717671D01*
X169453793Y-91717664D01*
X169367547Y-91602455D01*
X169367544Y-91602452D01*
X169252335Y-91516206D01*
X169252328Y-91516202D01*
X169117482Y-91465908D01*
X169117483Y-91465908D01*
X169057883Y-91459501D01*
X169057881Y-91459500D01*
X169057873Y-91459500D01*
X169057864Y-91459500D01*
X167262129Y-91459500D01*
X167262123Y-91459501D01*
X167202516Y-91465908D01*
X167067671Y-91516202D01*
X167067664Y-91516206D01*
X166952455Y-91602452D01*
X166952452Y-91602455D01*
X166866206Y-91717664D01*
X166866203Y-91717669D01*
X166817189Y-91849083D01*
X166775317Y-91905016D01*
X166709853Y-91929433D01*
X166641580Y-91914581D01*
X166613326Y-91893430D01*
X166499786Y-91779890D01*
X166327815Y-91654948D01*
X166327814Y-91654947D01*
X166288205Y-91634765D01*
X166237409Y-91586791D01*
X166220500Y-91524281D01*
X166220500Y-83990097D01*
X166229145Y-83960653D01*
X166235668Y-83930671D01*
X166239422Y-83925655D01*
X166240185Y-83923058D01*
X166256814Y-83902419D01*
X166368713Y-83790521D01*
X166368716Y-83790520D01*
X166480520Y-83678716D01*
X166530639Y-83591904D01*
X166559577Y-83541785D01*
X166572508Y-83493524D01*
X166576174Y-83485087D01*
X166592902Y-83465042D01*
X166606493Y-83442746D01*
X166614931Y-83438646D01*
X166620942Y-83431445D01*
X166645853Y-83423625D01*
X166669340Y-83412217D01*
X166686864Y-83410753D01*
X166687606Y-83410521D01*
X166688084Y-83410651D01*
X166689903Y-83410500D01*
X174775500Y-83410500D01*
X174842539Y-83430185D01*
G37*
%TD.AperFunction*%
%TA.AperFunction,Conductor*%
G36*
X154035270Y-93571717D02*
G01*
X154035270Y-93571716D01*
X154074622Y-93517555D01*
X154079232Y-93508507D01*
X154127205Y-93457709D01*
X154195025Y-93440912D01*
X154261161Y-93463447D01*
X154300204Y-93508504D01*
X154304949Y-93517817D01*
X154429890Y-93689786D01*
X154580213Y-93840109D01*
X154752182Y-93965050D01*
X154760946Y-93969516D01*
X154811742Y-94017491D01*
X154828536Y-94085312D01*
X154805998Y-94151447D01*
X154760946Y-94190484D01*
X154752182Y-94194949D01*
X154580213Y-94319890D01*
X154429890Y-94470213D01*
X154304949Y-94642182D01*
X154300484Y-94650946D01*
X154252509Y-94701742D01*
X154184688Y-94718536D01*
X154118553Y-94695998D01*
X154079516Y-94650946D01*
X154075050Y-94642182D01*
X153950109Y-94470213D01*
X153799786Y-94319890D01*
X153627817Y-94194949D01*
X153618504Y-94190204D01*
X153567707Y-94142230D01*
X153550912Y-94074409D01*
X153573449Y-94008274D01*
X153618507Y-93969232D01*
X153627555Y-93964622D01*
X153681716Y-93925270D01*
X153681717Y-93925270D01*
X153049408Y-93292962D01*
X153112993Y-93275925D01*
X153227007Y-93210099D01*
X153320099Y-93117007D01*
X153385925Y-93002993D01*
X153402962Y-92939408D01*
X154035270Y-93571717D01*
G37*
%TD.AperFunction*%
%TA.AperFunction,Conductor*%
G36*
X184702539Y-59760185D02*
G01*
X184748294Y-59812989D01*
X184759500Y-59864500D01*
X184759500Y-139635500D01*
X184739815Y-139702539D01*
X184687011Y-139748294D01*
X184635500Y-139759500D01*
X83864500Y-139759500D01*
X83797461Y-139739815D01*
X83751706Y-139687011D01*
X83740500Y-139635500D01*
X83740500Y-124687207D01*
X102437678Y-124687207D01*
X102454761Y-124851586D01*
X102454762Y-124851593D01*
X102507655Y-125008158D01*
X102507656Y-125008159D01*
X102507657Y-125008162D01*
X102541270Y-125063094D01*
X102559500Y-125127814D01*
X102559500Y-126492185D01*
X102541270Y-126556905D01*
X102507659Y-126611833D01*
X102507655Y-126611841D01*
X102454762Y-126768406D01*
X102454761Y-126768413D01*
X102437678Y-126932795D01*
X102457247Y-127096901D01*
X102475608Y-127148655D01*
X102512504Y-127252656D01*
X102600737Y-127392406D01*
X102717593Y-127509262D01*
X102717595Y-127509263D01*
X102717597Y-127509265D01*
X102857343Y-127597495D01*
X103013099Y-127652753D01*
X103177205Y-127672322D01*
X103341587Y-127655239D01*
X103498162Y-127602343D01*
X103522770Y-127587284D01*
X103553095Y-127568730D01*
X103617815Y-127550500D01*
X103642053Y-127550500D01*
X104452162Y-127550500D01*
X105357947Y-127550500D01*
X105382185Y-127550500D01*
X105446905Y-127568730D01*
X105493915Y-127597495D01*
X105501838Y-127602343D01*
X105501841Y-127602344D01*
X105658406Y-127655237D01*
X105658407Y-127655237D01*
X105658413Y-127655239D01*
X105822795Y-127672322D01*
X105986901Y-127652753D01*
X106142657Y-127597495D01*
X106282403Y-127509265D01*
X106399265Y-127392403D01*
X106487495Y-127252657D01*
X106542753Y-127096901D01*
X106562322Y-126932795D01*
X106545239Y-126768413D01*
X106492343Y-126611838D01*
X106492340Y-126611833D01*
X106458730Y-126556905D01*
X106440500Y-126492185D01*
X106440500Y-125127814D01*
X106458729Y-125063094D01*
X106492343Y-125008162D01*
X106545239Y-124851587D01*
X106562322Y-124687207D01*
X126437678Y-124687207D01*
X126454761Y-124851586D01*
X126454762Y-124851593D01*
X126507655Y-125008158D01*
X126507656Y-125008159D01*
X126507657Y-125008162D01*
X126541270Y-125063094D01*
X126559500Y-125127814D01*
X126559500Y-126492185D01*
X126541270Y-126556905D01*
X126507659Y-126611833D01*
X126507655Y-126611841D01*
X126454762Y-126768406D01*
X126454761Y-126768413D01*
X126437678Y-126932795D01*
X126457247Y-127096901D01*
X126475608Y-127148655D01*
X126512504Y-127252656D01*
X126600737Y-127392406D01*
X126717593Y-127509262D01*
X126717595Y-127509263D01*
X126717597Y-127509265D01*
X126857343Y-127597495D01*
X127013099Y-127652753D01*
X127177205Y-127672322D01*
X127341587Y-127655239D01*
X127498162Y-127602343D01*
X127522770Y-127587284D01*
X127553095Y-127568730D01*
X127617815Y-127550500D01*
X127642053Y-127550500D01*
X128452162Y-127550500D01*
X129357947Y-127550500D01*
X129382185Y-127550500D01*
X129446905Y-127568730D01*
X129493915Y-127597495D01*
X129501838Y-127602343D01*
X129501841Y-127602344D01*
X129658406Y-127655237D01*
X129658407Y-127655237D01*
X129658413Y-127655239D01*
X129822795Y-127672322D01*
X129986901Y-127652753D01*
X130142657Y-127597495D01*
X130282403Y-127509265D01*
X130399265Y-127392403D01*
X130487495Y-127252657D01*
X130542753Y-127096901D01*
X130562322Y-126932795D01*
X130545239Y-126768413D01*
X130492343Y-126611838D01*
X130492340Y-126611833D01*
X130458730Y-126556905D01*
X130440500Y-126492185D01*
X130440500Y-125127814D01*
X130458729Y-125063094D01*
X130492343Y-125008162D01*
X130545239Y-124851587D01*
X130562322Y-124687207D01*
X153937678Y-124687207D01*
X153954761Y-124851586D01*
X153954762Y-124851593D01*
X154007655Y-125008158D01*
X154007656Y-125008159D01*
X154007657Y-125008162D01*
X154041270Y-125063094D01*
X154059500Y-125127814D01*
X154059500Y-126492185D01*
X154041270Y-126556905D01*
X154007659Y-126611833D01*
X154007655Y-126611841D01*
X153954762Y-126768406D01*
X153954761Y-126768413D01*
X153937678Y-126932795D01*
X153957247Y-127096901D01*
X153975608Y-127148655D01*
X154012504Y-127252656D01*
X154100737Y-127392406D01*
X154217593Y-127509262D01*
X154217595Y-127509263D01*
X154217597Y-127509265D01*
X154357343Y-127597495D01*
X154513099Y-127652753D01*
X154677205Y-127672322D01*
X154841587Y-127655239D01*
X154998162Y-127602343D01*
X155022770Y-127587284D01*
X155053095Y-127568730D01*
X155117815Y-127550500D01*
X155142053Y-127550500D01*
X155952162Y-127550500D01*
X156857947Y-127550500D01*
X156882185Y-127550500D01*
X156946905Y-127568730D01*
X156993915Y-127597495D01*
X157001838Y-127602343D01*
X157001841Y-127602344D01*
X157158406Y-127655237D01*
X157158407Y-127655237D01*
X157158413Y-127655239D01*
X157322795Y-127672322D01*
X157486901Y-127652753D01*
X157642657Y-127597495D01*
X157782403Y-127509265D01*
X157899265Y-127392403D01*
X157987495Y-127252657D01*
X158042753Y-127096901D01*
X158062322Y-126932795D01*
X158045239Y-126768413D01*
X157992343Y-126611838D01*
X157992340Y-126611833D01*
X157958730Y-126556905D01*
X157940500Y-126492185D01*
X157940500Y-125127814D01*
X157958729Y-125063094D01*
X157992343Y-125008162D01*
X158045239Y-124851587D01*
X158062322Y-124687205D01*
X158042753Y-124523099D01*
X157987495Y-124367343D01*
X157899265Y-124227597D01*
X157899263Y-124227595D01*
X157899262Y-124227593D01*
X157782406Y-124110737D01*
X157642656Y-124022504D01*
X157568474Y-123996187D01*
X157486901Y-123967247D01*
X157322795Y-123947678D01*
X157322793Y-123947678D01*
X157322792Y-123947678D01*
X157158413Y-123964761D01*
X157158406Y-123964762D01*
X157001841Y-124017655D01*
X157001833Y-124017659D01*
X156946905Y-124051270D01*
X156882185Y-124069500D01*
X155117815Y-124069500D01*
X155053095Y-124051270D01*
X154998166Y-124017659D01*
X154998158Y-124017655D01*
X154841593Y-123964762D01*
X154841587Y-123964761D01*
X154786793Y-123959066D01*
X154677207Y-123947678D01*
X154677206Y-123947678D01*
X154677205Y-123947678D01*
X154513099Y-123967247D01*
X154472312Y-123981717D01*
X154357343Y-124022504D01*
X154217593Y-124110737D01*
X154100737Y-124227593D01*
X154012504Y-124367343D01*
X153986977Y-124439299D01*
X153957247Y-124523099D01*
X153950523Y-124579492D01*
X153937678Y-124687207D01*
X130562322Y-124687207D01*
X130562322Y-124687205D01*
X130542753Y-124523099D01*
X130487495Y-124367343D01*
X130399265Y-124227597D01*
X130399263Y-124227595D01*
X130399262Y-124227593D01*
X130282406Y-124110737D01*
X130142656Y-124022504D01*
X130068474Y-123996187D01*
X129986901Y-123967247D01*
X129822795Y-123947678D01*
X129822793Y-123947678D01*
X129822792Y-123947678D01*
X129658413Y-123964761D01*
X129658406Y-123964762D01*
X129501841Y-124017655D01*
X129501833Y-124017659D01*
X129446905Y-124051270D01*
X129382185Y-124069500D01*
X127617815Y-124069500D01*
X127553095Y-124051270D01*
X127498166Y-124017659D01*
X127498158Y-124017655D01*
X127341593Y-123964762D01*
X127341587Y-123964761D01*
X127286793Y-123959066D01*
X127177207Y-123947678D01*
X127177206Y-123947678D01*
X127177205Y-123947678D01*
X127013099Y-123967247D01*
X126972312Y-123981717D01*
X126857343Y-124022504D01*
X126717593Y-124110737D01*
X126600737Y-124227593D01*
X126512504Y-124367343D01*
X126486977Y-124439299D01*
X126457247Y-124523099D01*
X126450523Y-124579492D01*
X126437678Y-124687207D01*
X106562322Y-124687207D01*
X106562322Y-124687205D01*
X106542753Y-124523099D01*
X106487495Y-124367343D01*
X106399265Y-124227597D01*
X106399263Y-124227595D01*
X106399262Y-124227593D01*
X106282406Y-124110737D01*
X106142656Y-124022504D01*
X106068474Y-123996187D01*
X105986901Y-123967247D01*
X105822795Y-123947678D01*
X105822793Y-123947678D01*
X105822792Y-123947678D01*
X105658413Y-123964761D01*
X105658406Y-123964762D01*
X105501841Y-124017655D01*
X105501833Y-124017659D01*
X105446905Y-124051270D01*
X105382185Y-124069500D01*
X103617815Y-124069500D01*
X103553095Y-124051270D01*
X103498166Y-124017659D01*
X103498158Y-124017655D01*
X103341593Y-123964762D01*
X103341587Y-123964761D01*
X103286793Y-123959066D01*
X103177207Y-123947678D01*
X103177206Y-123947678D01*
X103177205Y-123947678D01*
X103013099Y-123967247D01*
X102972312Y-123981717D01*
X102857343Y-124022504D01*
X102717593Y-124110737D01*
X102600737Y-124227593D01*
X102512504Y-124367343D01*
X102486977Y-124439299D01*
X102457247Y-124523099D01*
X102450523Y-124579492D01*
X102437678Y-124687207D01*
X83740500Y-124687207D01*
X83740500Y-113162486D01*
X101249500Y-113162486D01*
X101249500Y-113457513D01*
X101281571Y-113701113D01*
X101288007Y-113749993D01*
X101288008Y-113749995D01*
X101364361Y-114034951D01*
X101364364Y-114034961D01*
X101477254Y-114307500D01*
X101477258Y-114307510D01*
X101624761Y-114562993D01*
X101804352Y-114797040D01*
X101804358Y-114797047D01*
X102012952Y-115005641D01*
X102012959Y-115005647D01*
X102247006Y-115185238D01*
X102502489Y-115332741D01*
X102502490Y-115332741D01*
X102502493Y-115332743D01*
X102775048Y-115445639D01*
X103060007Y-115521993D01*
X103352494Y-115560500D01*
X103352501Y-115560500D01*
X103647499Y-115560500D01*
X103647506Y-115560500D01*
X103939993Y-115521993D01*
X104224952Y-115445639D01*
X104497507Y-115332743D01*
X104752994Y-115185238D01*
X104987042Y-115005646D01*
X105195646Y-114797042D01*
X105375238Y-114562994D01*
X105522743Y-114307507D01*
X105635639Y-114034952D01*
X105711993Y-113749993D01*
X105750500Y-113457506D01*
X105750500Y-113162494D01*
X105750499Y-113162486D01*
X126749500Y-113162486D01*
X126749500Y-113457513D01*
X126781571Y-113701113D01*
X126788007Y-113749993D01*
X126788008Y-113749995D01*
X126864361Y-114034951D01*
X126864364Y-114034961D01*
X126977254Y-114307500D01*
X126977258Y-114307510D01*
X127124761Y-114562993D01*
X127304352Y-114797040D01*
X127304358Y-114797047D01*
X127512952Y-115005641D01*
X127512959Y-115005647D01*
X127747006Y-115185238D01*
X128002489Y-115332741D01*
X128002490Y-115332741D01*
X128002493Y-115332743D01*
X128275048Y-115445639D01*
X128560007Y-115521993D01*
X128852494Y-115560500D01*
X128852501Y-115560500D01*
X129147499Y-115560500D01*
X129147506Y-115560500D01*
X129439993Y-115521993D01*
X129724952Y-115445639D01*
X129997507Y-115332743D01*
X130252994Y-115185238D01*
X130487042Y-115005646D01*
X130695646Y-114797042D01*
X130875238Y-114562994D01*
X131022743Y-114307507D01*
X131135639Y-114034952D01*
X131211993Y-113749993D01*
X131250500Y-113457506D01*
X131250500Y-113162494D01*
X131250499Y-113162486D01*
X153249500Y-113162486D01*
X153249500Y-113457513D01*
X153281571Y-113701113D01*
X153288007Y-113749993D01*
X153288008Y-113749995D01*
X153364361Y-114034951D01*
X153364364Y-114034961D01*
X153477254Y-114307500D01*
X153477258Y-114307510D01*
X153624761Y-114562993D01*
X153804352Y-114797040D01*
X153804358Y-114797047D01*
X154012952Y-115005641D01*
X154012959Y-115005647D01*
X154247006Y-115185238D01*
X154502489Y-115332741D01*
X154502490Y-115332741D01*
X154502493Y-115332743D01*
X154775048Y-115445639D01*
X155060007Y-115521993D01*
X155352494Y-115560500D01*
X155352501Y-115560500D01*
X155647499Y-115560500D01*
X155647506Y-115560500D01*
X155939993Y-115521993D01*
X156224952Y-115445639D01*
X156497507Y-115332743D01*
X156752994Y-115185238D01*
X156987042Y-115005646D01*
X157195646Y-114797042D01*
X157375238Y-114562994D01*
X157522743Y-114307507D01*
X157635639Y-114034952D01*
X157711993Y-113749993D01*
X157750500Y-113457506D01*
X157750500Y-113162494D01*
X157711993Y-112870007D01*
X157635639Y-112585048D01*
X157522743Y-112312493D01*
X157375238Y-112057006D01*
X157195646Y-111822958D01*
X157195641Y-111822952D01*
X156987047Y-111614358D01*
X156987040Y-111614352D01*
X156752993Y-111434761D01*
X156497510Y-111287258D01*
X156497500Y-111287254D01*
X156224961Y-111174364D01*
X156224954Y-111174362D01*
X156224952Y-111174361D01*
X155939993Y-111098007D01*
X155891113Y-111091571D01*
X155647513Y-111059500D01*
X155647506Y-111059500D01*
X155352494Y-111059500D01*
X155352486Y-111059500D01*
X155074085Y-111096153D01*
X155060007Y-111098007D01*
X154885861Y-111144669D01*
X154775048Y-111174361D01*
X154775038Y-111174364D01*
X154502499Y-111287254D01*
X154502489Y-111287258D01*
X154247006Y-111434761D01*
X154012959Y-111614352D01*
X154012952Y-111614358D01*
X153804358Y-111822952D01*
X153804352Y-111822959D01*
X153624761Y-112057006D01*
X153477258Y-112312489D01*
X153477254Y-112312499D01*
X153364364Y-112585038D01*
X153364361Y-112585048D01*
X153288008Y-112870004D01*
X153288006Y-112870015D01*
X153249500Y-113162486D01*
X131250499Y-113162486D01*
X131211993Y-112870007D01*
X131135639Y-112585048D01*
X131022743Y-112312493D01*
X130875238Y-112057006D01*
X130695646Y-111822958D01*
X130695641Y-111822952D01*
X130487047Y-111614358D01*
X130487040Y-111614352D01*
X130252993Y-111434761D01*
X129997510Y-111287258D01*
X129997500Y-111287254D01*
X129724961Y-111174364D01*
X129724954Y-111174362D01*
X129724952Y-111174361D01*
X129439993Y-111098007D01*
X129391113Y-111091571D01*
X129147513Y-111059500D01*
X129147506Y-111059500D01*
X128852494Y-111059500D01*
X128852486Y-111059500D01*
X128574085Y-111096153D01*
X128560007Y-111098007D01*
X128385861Y-111144669D01*
X128275048Y-111174361D01*
X128275038Y-111174364D01*
X128002499Y-111287254D01*
X128002489Y-111287258D01*
X127747006Y-111434761D01*
X127512959Y-111614352D01*
X127512952Y-111614358D01*
X127304358Y-111822952D01*
X127304352Y-111822959D01*
X127124761Y-112057006D01*
X126977258Y-112312489D01*
X126977254Y-112312499D01*
X126864364Y-112585038D01*
X126864361Y-112585048D01*
X126788008Y-112870004D01*
X126788006Y-112870015D01*
X126749500Y-113162486D01*
X105750499Y-113162486D01*
X105711993Y-112870007D01*
X105635639Y-112585048D01*
X105522743Y-112312493D01*
X105375238Y-112057006D01*
X105195646Y-111822958D01*
X105195641Y-111822952D01*
X104987047Y-111614358D01*
X104987040Y-111614352D01*
X104752993Y-111434761D01*
X104497510Y-111287258D01*
X104497500Y-111287254D01*
X104224961Y-111174364D01*
X104224954Y-111174362D01*
X104224952Y-111174361D01*
X103939993Y-111098007D01*
X103891113Y-111091571D01*
X103647513Y-111059500D01*
X103647506Y-111059500D01*
X103352494Y-111059500D01*
X103352486Y-111059500D01*
X103074085Y-111096153D01*
X103060007Y-111098007D01*
X102885861Y-111144669D01*
X102775048Y-111174361D01*
X102775038Y-111174364D01*
X102502499Y-111287254D01*
X102502489Y-111287258D01*
X102247006Y-111434761D01*
X102012959Y-111614352D01*
X102012952Y-111614358D01*
X101804358Y-111822952D01*
X101804352Y-111822959D01*
X101624761Y-112057006D01*
X101477258Y-112312489D01*
X101477254Y-112312499D01*
X101364364Y-112585038D01*
X101364361Y-112585048D01*
X101288008Y-112870004D01*
X101288006Y-112870015D01*
X101249500Y-113162486D01*
X83740500Y-113162486D01*
X83740500Y-110644071D01*
X98090000Y-110644071D01*
X98090000Y-110895928D01*
X98129397Y-111144669D01*
X98207219Y-111384184D01*
X98321557Y-111608583D01*
X98395748Y-111710697D01*
X98395748Y-111710698D01*
X99012421Y-111094024D01*
X99025359Y-111125258D01*
X99107437Y-111248097D01*
X99211903Y-111352563D01*
X99334742Y-111434641D01*
X99365974Y-111447577D01*
X98749300Y-112064250D01*
X98851416Y-112138442D01*
X99075815Y-112252780D01*
X99315330Y-112330602D01*
X99564072Y-112370000D01*
X99815928Y-112370000D01*
X100064669Y-112330602D01*
X100304184Y-112252780D01*
X100528575Y-112138446D01*
X100528581Y-112138442D01*
X100630697Y-112064250D01*
X100630698Y-112064250D01*
X100014025Y-111447578D01*
X100045258Y-111434641D01*
X100168097Y-111352563D01*
X100272563Y-111248097D01*
X100354641Y-111125258D01*
X100367577Y-111094025D01*
X100984250Y-111710698D01*
X100984250Y-111710697D01*
X101058442Y-111608581D01*
X101058446Y-111608575D01*
X101172780Y-111384184D01*
X101250602Y-111144669D01*
X101290000Y-110895928D01*
X101290000Y-110644071D01*
X123590000Y-110644071D01*
X123590000Y-110895928D01*
X123629397Y-111144669D01*
X123707219Y-111384184D01*
X123821557Y-111608583D01*
X123895748Y-111710697D01*
X123895748Y-111710698D01*
X124512421Y-111094024D01*
X124525359Y-111125258D01*
X124607437Y-111248097D01*
X124711903Y-111352563D01*
X124834742Y-111434641D01*
X124865974Y-111447577D01*
X124249300Y-112064250D01*
X124351416Y-112138442D01*
X124575815Y-112252780D01*
X124815330Y-112330602D01*
X125064072Y-112370000D01*
X125315928Y-112370000D01*
X125564669Y-112330602D01*
X125804184Y-112252780D01*
X126028575Y-112138446D01*
X126028581Y-112138442D01*
X126130697Y-112064250D01*
X126130698Y-112064250D01*
X125514025Y-111447578D01*
X125545258Y-111434641D01*
X125668097Y-111352563D01*
X125772563Y-111248097D01*
X125854641Y-111125258D01*
X125867577Y-111094025D01*
X126484250Y-111710698D01*
X126484250Y-111710697D01*
X126558442Y-111608581D01*
X126558446Y-111608575D01*
X126672780Y-111384184D01*
X126750602Y-111144669D01*
X126790000Y-110895928D01*
X126790000Y-110644071D01*
X150090000Y-110644071D01*
X150090000Y-110895928D01*
X150129397Y-111144669D01*
X150207219Y-111384184D01*
X150321557Y-111608583D01*
X150395748Y-111710697D01*
X150395748Y-111710698D01*
X151012421Y-111094024D01*
X151025359Y-111125258D01*
X151107437Y-111248097D01*
X151211903Y-111352563D01*
X151334742Y-111434641D01*
X151365974Y-111447577D01*
X150749300Y-112064250D01*
X150851416Y-112138442D01*
X151075815Y-112252780D01*
X151315330Y-112330602D01*
X151564072Y-112370000D01*
X151815928Y-112370000D01*
X152064669Y-112330602D01*
X152304184Y-112252780D01*
X152528575Y-112138446D01*
X152528581Y-112138442D01*
X152630697Y-112064250D01*
X152630698Y-112064250D01*
X152014025Y-111447578D01*
X152045258Y-111434641D01*
X152168097Y-111352563D01*
X152272563Y-111248097D01*
X152354641Y-111125258D01*
X152367577Y-111094025D01*
X152984250Y-111710698D01*
X152984250Y-111710697D01*
X153058442Y-111608581D01*
X153058446Y-111608575D01*
X153172780Y-111384184D01*
X153250602Y-111144669D01*
X153290000Y-110895928D01*
X153290000Y-110644071D01*
X153250602Y-110395330D01*
X153172780Y-110155815D01*
X153058442Y-109931416D01*
X152984250Y-109829301D01*
X152984250Y-109829300D01*
X152367577Y-110445973D01*
X152354641Y-110414742D01*
X152272563Y-110291903D01*
X152168097Y-110187437D01*
X152045258Y-110105359D01*
X152014024Y-110092421D01*
X152630698Y-109475748D01*
X152528583Y-109401557D01*
X152304184Y-109287219D01*
X152064669Y-109209397D01*
X151815928Y-109170000D01*
X151564072Y-109170000D01*
X151315330Y-109209397D01*
X151075815Y-109287219D01*
X150851413Y-109401559D01*
X150749301Y-109475747D01*
X150749300Y-109475748D01*
X151365974Y-110092421D01*
X151334742Y-110105359D01*
X151211903Y-110187437D01*
X151107437Y-110291903D01*
X151025359Y-110414742D01*
X151012421Y-110445974D01*
X150395748Y-109829300D01*
X150395747Y-109829301D01*
X150321559Y-109931413D01*
X150207219Y-110155815D01*
X150129397Y-110395330D01*
X150090000Y-110644071D01*
X126790000Y-110644071D01*
X126750602Y-110395330D01*
X126672780Y-110155815D01*
X126558442Y-109931416D01*
X126484250Y-109829301D01*
X126484250Y-109829300D01*
X125867577Y-110445973D01*
X125854641Y-110414742D01*
X125772563Y-110291903D01*
X125668097Y-110187437D01*
X125545258Y-110105359D01*
X125514024Y-110092421D01*
X126130698Y-109475748D01*
X126028583Y-109401557D01*
X125804184Y-109287219D01*
X125564669Y-109209397D01*
X125315928Y-109170000D01*
X125064072Y-109170000D01*
X124815330Y-109209397D01*
X124575815Y-109287219D01*
X124351413Y-109401559D01*
X124249301Y-109475747D01*
X124249300Y-109475748D01*
X124865974Y-110092421D01*
X124834742Y-110105359D01*
X124711903Y-110187437D01*
X124607437Y-110291903D01*
X124525359Y-110414742D01*
X124512421Y-110445974D01*
X123895748Y-109829300D01*
X123895747Y-109829301D01*
X123821559Y-109931413D01*
X123707219Y-110155815D01*
X123629397Y-110395330D01*
X123590000Y-110644071D01*
X101290000Y-110644071D01*
X101250602Y-110395330D01*
X101172780Y-110155815D01*
X101058442Y-109931416D01*
X100984250Y-109829301D01*
X100984250Y-109829300D01*
X100367577Y-110445973D01*
X100354641Y-110414742D01*
X100272563Y-110291903D01*
X100168097Y-110187437D01*
X100045258Y-110105359D01*
X100014024Y-110092421D01*
X100630698Y-109475748D01*
X100528583Y-109401557D01*
X100304184Y-109287219D01*
X100064669Y-109209397D01*
X99815928Y-109170000D01*
X99564072Y-109170000D01*
X99315330Y-109209397D01*
X99075815Y-109287219D01*
X98851413Y-109401559D01*
X98749301Y-109475747D01*
X98749300Y-109475748D01*
X99365974Y-110092421D01*
X99334742Y-110105359D01*
X99211903Y-110187437D01*
X99107437Y-110291903D01*
X99025359Y-110414742D01*
X99012421Y-110445974D01*
X98395748Y-109829300D01*
X98395747Y-109829301D01*
X98321559Y-109931413D01*
X98207219Y-110155815D01*
X98129397Y-110395330D01*
X98090000Y-110644071D01*
X83740500Y-110644071D01*
X83740500Y-83389054D01*
X89399498Y-83389054D01*
X89440423Y-83541785D01*
X89469358Y-83591900D01*
X89469359Y-83591904D01*
X89469360Y-83591904D01*
X89519479Y-83678714D01*
X89519481Y-83678717D01*
X89638349Y-83797585D01*
X89638355Y-83797590D01*
X108015139Y-102174374D01*
X108015149Y-102174385D01*
X108019479Y-102178715D01*
X108019480Y-102178716D01*
X108131284Y-102290520D01*
X108218095Y-102340639D01*
X108218097Y-102340641D01*
X108256151Y-102362611D01*
X108268215Y-102369577D01*
X108420943Y-102410501D01*
X108420946Y-102410501D01*
X108586653Y-102410501D01*
X108586669Y-102410500D01*
X159037248Y-102410500D01*
X159104287Y-102430185D01*
X159150042Y-102482989D01*
X159159986Y-102552147D01*
X159130961Y-102615703D01*
X159124929Y-102622181D01*
X155553930Y-106193181D01*
X155492607Y-106226666D01*
X155466249Y-106229500D01*
X107526669Y-106229500D01*
X107526653Y-106229499D01*
X107519057Y-106229499D01*
X107360943Y-106229499D01*
X107253587Y-106258265D01*
X107208210Y-106270424D01*
X107208209Y-106270425D01*
X107158096Y-106299359D01*
X107158095Y-106299360D01*
X107114689Y-106324420D01*
X107071285Y-106349479D01*
X107071282Y-106349481D01*
X106959478Y-106461286D01*
X106722923Y-106697840D01*
X106661600Y-106731325D01*
X106596924Y-106728090D01*
X106414787Y-106668910D01*
X106248903Y-106642636D01*
X106165962Y-106629500D01*
X105914038Y-106629500D01*
X105789626Y-106649205D01*
X105665214Y-106668910D01*
X105425616Y-106746760D01*
X105201151Y-106861132D01*
X104997350Y-107009201D01*
X104997345Y-107009205D01*
X104819205Y-107187345D01*
X104819201Y-107187350D01*
X104671132Y-107391151D01*
X104556760Y-107615616D01*
X104478910Y-107855214D01*
X104439500Y-108104038D01*
X104439500Y-108355961D01*
X104478910Y-108604785D01*
X104556760Y-108844383D01*
X104671132Y-109068848D01*
X104819201Y-109272649D01*
X104819205Y-109272654D01*
X104997345Y-109450794D01*
X104997350Y-109450798D01*
X105175117Y-109579952D01*
X105201155Y-109598870D01*
X105344184Y-109671747D01*
X105425616Y-109713239D01*
X105425618Y-109713239D01*
X105425621Y-109713241D01*
X105665215Y-109791090D01*
X105914038Y-109830500D01*
X105914039Y-109830500D01*
X106165961Y-109830500D01*
X106165962Y-109830500D01*
X106414785Y-109791090D01*
X106654379Y-109713241D01*
X106878845Y-109598870D01*
X107082656Y-109450793D01*
X107260793Y-109272656D01*
X107408870Y-109068845D01*
X107523241Y-108844379D01*
X107601090Y-108604785D01*
X107640500Y-108355962D01*
X107640500Y-108104038D01*
X107601090Y-107855215D01*
X107601089Y-107855211D01*
X107601089Y-107855210D01*
X107541909Y-107673074D01*
X107541474Y-107657860D01*
X107536156Y-107643601D01*
X107540497Y-107623645D01*
X107539914Y-107603233D01*
X107548001Y-107589146D01*
X107551008Y-107575328D01*
X107572155Y-107547079D01*
X107652417Y-107466817D01*
X107713740Y-107433334D01*
X107740097Y-107430500D01*
X129948733Y-107430500D01*
X130015772Y-107450185D01*
X130061527Y-107502989D01*
X130071471Y-107572147D01*
X130059217Y-107610797D01*
X130056760Y-107615617D01*
X129978910Y-107855214D01*
X129939500Y-108104038D01*
X129939500Y-108355961D01*
X129978910Y-108604785D01*
X130056760Y-108844383D01*
X130171132Y-109068848D01*
X130319201Y-109272649D01*
X130319205Y-109272654D01*
X130497345Y-109450794D01*
X130497350Y-109450798D01*
X130675117Y-109579952D01*
X130701155Y-109598870D01*
X130844184Y-109671747D01*
X130925616Y-109713239D01*
X130925618Y-109713239D01*
X130925621Y-109713241D01*
X131165215Y-109791090D01*
X131414038Y-109830500D01*
X131414039Y-109830500D01*
X131665961Y-109830500D01*
X131665962Y-109830500D01*
X131914785Y-109791090D01*
X132154379Y-109713241D01*
X132378845Y-109598870D01*
X132582656Y-109450793D01*
X132760793Y-109272656D01*
X132908870Y-109068845D01*
X132995815Y-108898204D01*
X133043789Y-108847409D01*
X133106300Y-108830500D01*
X155193331Y-108830500D01*
X155193347Y-108830501D01*
X155200943Y-108830501D01*
X155359054Y-108830501D01*
X155359057Y-108830501D01*
X155511785Y-108789577D01*
X155561904Y-108760639D01*
X155648716Y-108710520D01*
X155760520Y-108598716D01*
X155760520Y-108598714D01*
X155770728Y-108588507D01*
X155770730Y-108588504D01*
X156227819Y-108131415D01*
X156289142Y-108097930D01*
X156358834Y-108102914D01*
X156414767Y-108144786D01*
X156439184Y-108210250D01*
X156439500Y-108219096D01*
X156439500Y-108355961D01*
X156478910Y-108604785D01*
X156556760Y-108844383D01*
X156671132Y-109068848D01*
X156819201Y-109272649D01*
X156819205Y-109272654D01*
X156997345Y-109450794D01*
X156997350Y-109450798D01*
X157175117Y-109579952D01*
X157201155Y-109598870D01*
X157344184Y-109671747D01*
X157425616Y-109713239D01*
X157425618Y-109713239D01*
X157425621Y-109713241D01*
X157665215Y-109791090D01*
X157914038Y-109830500D01*
X157914039Y-109830500D01*
X158165961Y-109830500D01*
X158165962Y-109830500D01*
X158414785Y-109791090D01*
X158654379Y-109713241D01*
X158878845Y-109598870D01*
X159082656Y-109450793D01*
X159260793Y-109272656D01*
X159408870Y-109068845D01*
X159495815Y-108898204D01*
X159543789Y-108847409D01*
X159606300Y-108830500D01*
X175579055Y-108830500D01*
X175579057Y-108830500D01*
X175731784Y-108789577D01*
X175868716Y-108710520D01*
X175980520Y-108598716D01*
X176059577Y-108461784D01*
X176100500Y-108309057D01*
X176100500Y-82730943D01*
X176059577Y-82578216D01*
X176059573Y-82578209D01*
X175980524Y-82441290D01*
X175980518Y-82441282D01*
X175868717Y-82329481D01*
X175868709Y-82329475D01*
X175731790Y-82250426D01*
X175731786Y-82250424D01*
X175731784Y-82250423D01*
X175579057Y-82209500D01*
X166079057Y-82209500D01*
X165920943Y-82209500D01*
X165768216Y-82250423D01*
X165768209Y-82250426D01*
X165631290Y-82329475D01*
X165631282Y-82329481D01*
X165519481Y-82441282D01*
X165519475Y-82441290D01*
X165440426Y-82578209D01*
X165440423Y-82578216D01*
X165399500Y-82730943D01*
X165399500Y-83009902D01*
X165379815Y-83076941D01*
X165363181Y-83097583D01*
X165139481Y-83321282D01*
X165139479Y-83321285D01*
X165100353Y-83389055D01*
X165100352Y-83389057D01*
X165060423Y-83458214D01*
X165046781Y-83509124D01*
X165019499Y-83610943D01*
X165019499Y-83610945D01*
X165019499Y-83779046D01*
X165019500Y-83779059D01*
X165019500Y-91524281D01*
X164999815Y-91591320D01*
X164951795Y-91634765D01*
X164912185Y-91654947D01*
X164912184Y-91654948D01*
X164740213Y-91779890D01*
X164589890Y-91930213D01*
X164464949Y-92102182D01*
X164460484Y-92110946D01*
X164412509Y-92161742D01*
X164344688Y-92178536D01*
X164278553Y-92155998D01*
X164239516Y-92110946D01*
X164235050Y-92102182D01*
X164110109Y-91930213D01*
X163959786Y-91779890D01*
X163787820Y-91654951D01*
X163598414Y-91558444D01*
X163598413Y-91558443D01*
X163598412Y-91558443D01*
X163396243Y-91492754D01*
X163396241Y-91492753D01*
X163396240Y-91492753D01*
X163234957Y-91467208D01*
X163186287Y-91459500D01*
X162973713Y-91459500D01*
X162925042Y-91467208D01*
X162763760Y-91492753D01*
X162561585Y-91558444D01*
X162372179Y-91654951D01*
X162200213Y-91779890D01*
X162049890Y-91930213D01*
X161924949Y-92102182D01*
X161920484Y-92110946D01*
X161872509Y-92161742D01*
X161804688Y-92178536D01*
X161738553Y-92155998D01*
X161699516Y-92110946D01*
X161695050Y-92102182D01*
X161570109Y-91930213D01*
X161419786Y-91779890D01*
X161247820Y-91654951D01*
X161058414Y-91558444D01*
X161058413Y-91558443D01*
X161058412Y-91558443D01*
X160856243Y-91492754D01*
X160856241Y-91492753D01*
X160856240Y-91492753D01*
X160694957Y-91467208D01*
X160646287Y-91459500D01*
X160433713Y-91459500D01*
X160385042Y-91467208D01*
X160223760Y-91492753D01*
X160021585Y-91558444D01*
X159832179Y-91654951D01*
X159660213Y-91779890D01*
X159509890Y-91930213D01*
X159384949Y-92102182D01*
X159380484Y-92110946D01*
X159332509Y-92161742D01*
X159264688Y-92178536D01*
X159198553Y-92155998D01*
X159159516Y-92110946D01*
X159155050Y-92102182D01*
X159030109Y-91930213D01*
X158879786Y-91779890D01*
X158707820Y-91654951D01*
X158518414Y-91558444D01*
X158518413Y-91558443D01*
X158518412Y-91558443D01*
X158316243Y-91492754D01*
X158316241Y-91492753D01*
X158316240Y-91492753D01*
X158154957Y-91467208D01*
X158106287Y-91459500D01*
X157893713Y-91459500D01*
X157845042Y-91467208D01*
X157683760Y-91492753D01*
X157481585Y-91558444D01*
X157292179Y-91654951D01*
X157120213Y-91779890D01*
X156969890Y-91930213D01*
X156844949Y-92102182D01*
X156840484Y-92110946D01*
X156792509Y-92161742D01*
X156724688Y-92178536D01*
X156658553Y-92155998D01*
X156619516Y-92110946D01*
X156615050Y-92102182D01*
X156490109Y-91930213D01*
X156339786Y-91779890D01*
X156167820Y-91654951D01*
X155978414Y-91558444D01*
X155978413Y-91558443D01*
X155978412Y-91558443D01*
X155776243Y-91492754D01*
X155776241Y-91492753D01*
X155776240Y-91492753D01*
X155614957Y-91467208D01*
X155566287Y-91459500D01*
X155353713Y-91459500D01*
X155305042Y-91467208D01*
X155143760Y-91492753D01*
X154941585Y-91558444D01*
X154752179Y-91654951D01*
X154580213Y-91779890D01*
X154429890Y-91930213D01*
X154304949Y-92102182D01*
X154300202Y-92111499D01*
X154252227Y-92162293D01*
X154184405Y-92179087D01*
X154118271Y-92156548D01*
X154079234Y-92111495D01*
X154074626Y-92102452D01*
X154035270Y-92048282D01*
X154035269Y-92048282D01*
X153402962Y-92680590D01*
X153385925Y-92617007D01*
X153320099Y-92502993D01*
X153227007Y-92409901D01*
X153112993Y-92344075D01*
X153049409Y-92327037D01*
X153681716Y-91694728D01*
X153627550Y-91655375D01*
X153438217Y-91558904D01*
X153236129Y-91493242D01*
X153026246Y-91460000D01*
X152813754Y-91460000D01*
X152603872Y-91493242D01*
X152603869Y-91493242D01*
X152401782Y-91558904D01*
X152212439Y-91655380D01*
X152158282Y-91694727D01*
X152158282Y-91694728D01*
X152790591Y-92327037D01*
X152727007Y-92344075D01*
X152612993Y-92409901D01*
X152519901Y-92502993D01*
X152454075Y-92617007D01*
X152437037Y-92680591D01*
X151804728Y-92048282D01*
X151804727Y-92048282D01*
X151765380Y-92102439D01*
X151668904Y-92291782D01*
X151603242Y-92493869D01*
X151603242Y-92493872D01*
X151570000Y-92703753D01*
X151570000Y-92916246D01*
X151603242Y-93126127D01*
X151603242Y-93126130D01*
X151668904Y-93328217D01*
X151765375Y-93517550D01*
X151804728Y-93571716D01*
X152437037Y-92939408D01*
X152454075Y-93002993D01*
X152519901Y-93117007D01*
X152612993Y-93210099D01*
X152727007Y-93275925D01*
X152790590Y-93292962D01*
X152158282Y-93925269D01*
X152158282Y-93925270D01*
X152212452Y-93964626D01*
X152212451Y-93964626D01*
X152221495Y-93969234D01*
X152272292Y-94017208D01*
X152289087Y-94085029D01*
X152266550Y-94151164D01*
X152221499Y-94190202D01*
X152212182Y-94194949D01*
X152040213Y-94319890D01*
X151889890Y-94470213D01*
X151764951Y-94642179D01*
X151668444Y-94831585D01*
X151602753Y-95033760D01*
X151569500Y-95243713D01*
X151569500Y-95456286D01*
X151602753Y-95666239D01*
X151668444Y-95868414D01*
X151764951Y-96057820D01*
X151889890Y-96229786D01*
X152040209Y-96380105D01*
X152040214Y-96380109D01*
X152184835Y-96485182D01*
X152227501Y-96540511D01*
X152233480Y-96610125D01*
X152200875Y-96671920D01*
X152140036Y-96706277D01*
X152111950Y-96709500D01*
X119070097Y-96709500D01*
X119003058Y-96689815D01*
X118982416Y-96673181D01*
X95833757Y-73524522D01*
X95800272Y-73463199D01*
X95803507Y-73398523D01*
X95817246Y-73356243D01*
X95850500Y-73146287D01*
X95850500Y-72933713D01*
X95817246Y-72723757D01*
X95751557Y-72521588D01*
X95655051Y-72332184D01*
X95655049Y-72332181D01*
X95655048Y-72332179D01*
X95530109Y-72160213D01*
X95416181Y-72046285D01*
X95382696Y-71984962D01*
X95387680Y-71915270D01*
X95429552Y-71859337D01*
X95460529Y-71842422D01*
X95592086Y-71793354D01*
X95592093Y-71793350D01*
X95707187Y-71707190D01*
X95707190Y-71707187D01*
X95793350Y-71592093D01*
X95793354Y-71592086D01*
X95843596Y-71457379D01*
X95843598Y-71457372D01*
X95849999Y-71397844D01*
X95850000Y-71397827D01*
X95850000Y-70750000D01*
X94933012Y-70750000D01*
X94965925Y-70692993D01*
X95000000Y-70565826D01*
X95000000Y-70434174D01*
X94965925Y-70307007D01*
X94933012Y-70250000D01*
X95850000Y-70250000D01*
X95850000Y-69602172D01*
X95849999Y-69602155D01*
X95843598Y-69542627D01*
X95843596Y-69542620D01*
X95793354Y-69407913D01*
X95793350Y-69407906D01*
X95707190Y-69292812D01*
X95707187Y-69292809D01*
X95592093Y-69206649D01*
X95592086Y-69206645D01*
X95457379Y-69156403D01*
X95457372Y-69156401D01*
X95397844Y-69150000D01*
X94750000Y-69150000D01*
X94750000Y-70066988D01*
X94692993Y-70034075D01*
X94565826Y-70000000D01*
X94434174Y-70000000D01*
X94307007Y-70034075D01*
X94250000Y-70066988D01*
X94250000Y-69150000D01*
X93602155Y-69150000D01*
X93542627Y-69156401D01*
X93542620Y-69156403D01*
X93407913Y-69206645D01*
X93407906Y-69206649D01*
X93292812Y-69292809D01*
X93292809Y-69292812D01*
X93206649Y-69407906D01*
X93206645Y-69407913D01*
X93156403Y-69542620D01*
X93156401Y-69542627D01*
X93150000Y-69602155D01*
X93150000Y-70250000D01*
X94066988Y-70250000D01*
X94034075Y-70307007D01*
X94000000Y-70434174D01*
X94000000Y-70565826D01*
X94034075Y-70692993D01*
X94066988Y-70750000D01*
X93150000Y-70750000D01*
X93150000Y-71397844D01*
X93156401Y-71457372D01*
X93156403Y-71457379D01*
X93206645Y-71592086D01*
X93206649Y-71592093D01*
X93292809Y-71707187D01*
X93292812Y-71707190D01*
X93407906Y-71793350D01*
X93407913Y-71793354D01*
X93539470Y-71842422D01*
X93595404Y-71884293D01*
X93619821Y-71949758D01*
X93604969Y-72018031D01*
X93583819Y-72046285D01*
X93469889Y-72160215D01*
X93344951Y-72332179D01*
X93248444Y-72521585D01*
X93182753Y-72723760D01*
X93149500Y-72933713D01*
X93149500Y-73146286D01*
X93182753Y-73356239D01*
X93182753Y-73356241D01*
X93182754Y-73356243D01*
X93237431Y-73524522D01*
X93248444Y-73558414D01*
X93344951Y-73747820D01*
X93469890Y-73919786D01*
X93620213Y-74070109D01*
X93792182Y-74195050D01*
X93800946Y-74199516D01*
X93851742Y-74247491D01*
X93868536Y-74315312D01*
X93845998Y-74381447D01*
X93800946Y-74420484D01*
X93792182Y-74424949D01*
X93620213Y-74549890D01*
X93469890Y-74700213D01*
X93344951Y-74872179D01*
X93248444Y-75061585D01*
X93182753Y-75263760D01*
X93149500Y-75473713D01*
X93149500Y-75686286D01*
X93182754Y-75896244D01*
X93182754Y-75896247D01*
X93196491Y-75938523D01*
X93198486Y-76008364D01*
X93166241Y-76064522D01*
X89631286Y-79599478D01*
X89519481Y-79711282D01*
X89519479Y-79711285D01*
X89469361Y-79798094D01*
X89469359Y-79798096D01*
X89440425Y-79848209D01*
X89440424Y-79848210D01*
X89440423Y-79848215D01*
X89399499Y-80000943D01*
X89399499Y-80159057D01*
X89399499Y-80159059D01*
X89399500Y-80169053D01*
X89399500Y-83223330D01*
X89399499Y-83223348D01*
X89399499Y-83389054D01*
X89399498Y-83389054D01*
X83740500Y-83389054D01*
X83740500Y-59864500D01*
X83760185Y-59797461D01*
X83812989Y-59751706D01*
X83864500Y-59740500D01*
X184635500Y-59740500D01*
X184702539Y-59760185D01*
G37*
%TD.AperFunction*%
%TD*%
M02*
