%TF.GenerationSoftware,KiCad,Pcbnew,10.0.4*%
%TF.CreationDate,2026-07-15T15:02:28-04:00*%
%TF.ProjectId,STARDANCE-HACKPAD,53544152-4441-44e4-9345-2d4841434b50,rev?*%
%TF.SameCoordinates,Original*%
%TF.FileFunction,Copper,L2,Bot*%
%TF.FilePolarity,Positive*%
%FSLAX46Y46*%
G04 Gerber Fmt 4.6, Leading zero omitted, Abs format (unit mm)*
G04 Created by KiCad (PCBNEW 10.0.4) date 2026-07-15 15:02:28*
%MOMM*%
%LPD*%
G01*
G04 APERTURE LIST*
%TA.AperFunction,ComponentPad*%
%ADD10R,1.700000X1.700000*%
%TD*%
%TA.AperFunction,ComponentPad*%
%ADD11C,1.700000*%
%TD*%
%TA.AperFunction,ComponentPad*%
%ADD12C,2.200000*%
%TD*%
%TA.AperFunction,Conductor*%
%ADD13C,0.200000*%
%TD*%
G04 APERTURE END LIST*
D10*
%TO.P,J1,1,Pin_1_1*%
%TO.N,GND*%
X94500000Y-70500000D03*
D11*
%TO.P,J1,2,Pin_2_2*%
%TO.N,+3.3V*%
X94500000Y-73040000D03*
%TO.P,J1,3,Pin_3_3*%
%TO.N,/SCL*%
X94500000Y-75580000D03*
%TO.P,J1,4,Pin_4_4*%
%TO.N,/SDA*%
X94500000Y-78120000D03*
%TD*%
D12*
%TO.P,SW4,1,1_1*%
%TO.N,/B3*%
X158040000Y-108230000D03*
%TO.P,SW4,2,2_2*%
%TO.N,GND*%
X151690000Y-110770000D03*
%TD*%
%TO.P,SW2,1,1_1*%
%TO.N,/B1*%
X106040000Y-108230000D03*
%TO.P,SW2,2,2_2*%
%TO.N,GND*%
X99690000Y-110770000D03*
%TD*%
%TO.P,SW3,1,1_1*%
%TO.N,/B2*%
X131540000Y-108230000D03*
%TO.P,SW3,2,2_2*%
%TO.N,GND*%
X125190000Y-110770000D03*
%TD*%
D10*
%TO.P,U1,1,PA02_A0_D0_1*%
%TO.N,/B1*%
X168160000Y-92810000D03*
D11*
%TO.P,U1,2,PA4_A1_D1_2*%
%TO.N,/B2*%
X168160000Y-95350000D03*
%TO.P,U1,3,PA10_A2_D2_3*%
%TO.N,/B3*%
X165620000Y-92810000D03*
%TO.P,U1,4,PA11_A3_D3_4*%
%TO.N,/SCL*%
X165620000Y-95350000D03*
%TO.P,U1,5,PA8_A4_D4_SDA_5*%
%TO.N,/SDA*%
X163080000Y-92810000D03*
%TO.P,U1,6,PA9_A5_D5_SCL_6*%
%TO.N,unconnected-(U1-PA9_A5_D5_SCL-Pad6)*%
X163080000Y-95350000D03*
%TO.P,U1,7,PB08_A6_D6_TX_7*%
%TO.N,/LEDDATA*%
X160540000Y-92810000D03*
%TO.P,U1,8,PB09_A7_D7_RX_8*%
%TO.N,unconnected-(U1-PB09_A7_D7_RX-Pad8)*%
X160540000Y-95350000D03*
%TO.P,U1,9,PA7_A8_D8_SCK_9*%
%TO.N,unconnected-(U1-PA7_A8_D8_SCK-Pad9)*%
X158000000Y-92810000D03*
%TO.P,U1,10,PA5_A9_D9_MISO_10*%
%TO.N,unconnected-(U1-PA5_A9_D9_MISO-Pad10)*%
X158000000Y-95350000D03*
%TO.P,U1,11,PA6_A10_D10_MOSI_11*%
%TO.N,unconnected-(U1-PA6_A10_D10_MOSI-Pad11)*%
X155460000Y-92810000D03*
%TO.P,U1,12,3V3_12*%
%TO.N,+3.3V*%
X155460000Y-95350000D03*
%TO.P,U1,13,GND_13*%
%TO.N,GND*%
X152920000Y-92810000D03*
%TO.P,U1,14,5V_14*%
%TO.N,+5V*%
X152920000Y-95350000D03*
%TD*%
%TO.N,GND*%
D13*
X169256346Y-91660000D02*
X169710000Y-92113654D01*
X130610000Y-70500000D02*
X94500000Y-70500000D01*
X166096346Y-93960000D02*
X167010000Y-93046346D01*
X163796346Y-91660000D02*
X164470000Y-92333654D01*
X167010000Y-91660000D02*
X169256346Y-91660000D01*
X151690000Y-110770000D02*
X153413654Y-110770000D01*
X165143654Y-93960000D02*
X166096346Y-93960000D01*
X164470000Y-93286346D02*
X165143654Y-93960000D01*
X167683654Y-96500000D02*
X168636346Y-96500000D01*
X125190000Y-110770000D02*
X151690000Y-110770000D01*
X169710000Y-92113654D02*
X169710000Y-95426346D01*
X153413654Y-110770000D02*
X167683654Y-96500000D01*
X167010000Y-93046346D02*
X167010000Y-91660000D01*
X94500000Y-70500000D02*
X94690000Y-70310000D01*
X152920000Y-92810000D02*
X154070000Y-91660000D01*
X152920000Y-92810000D02*
X130610000Y-70500000D01*
X154070000Y-91660000D02*
X163796346Y-91660000D01*
X164470000Y-92333654D02*
X164470000Y-93286346D01*
X168636346Y-96500000D02*
X169710000Y-95426346D01*
%TO.N,+3.3V*%
X94500000Y-73040000D02*
X118770000Y-97310000D01*
X156500000Y-96390000D02*
X155460000Y-95350000D01*
X118770000Y-97310000D02*
X156500000Y-97310000D01*
X156500000Y-97310000D02*
X156500000Y-96390000D01*
%TO.N,/SCL*%
X108500000Y-101810000D02*
X90000000Y-83310000D01*
X159160000Y-101810000D02*
X108500000Y-101810000D01*
X90000000Y-83310000D02*
X90000000Y-80080000D01*
X90000000Y-80080000D02*
X94500000Y-75580000D01*
X165620000Y-95350000D02*
X159160000Y-101810000D01*
%TO.N,/SDA*%
X114090000Y-97710000D02*
X160046346Y-97710000D01*
X160046346Y-97710000D02*
X161930000Y-95826346D01*
X161930000Y-93960000D02*
X163080000Y-92810000D01*
X161930000Y-95826346D02*
X161930000Y-93960000D01*
X94500000Y-78120000D02*
X114090000Y-97710000D01*
%TO.N,/B3*%
X165620000Y-83690000D02*
X165620000Y-92810000D01*
X158040000Y-108230000D02*
X175500000Y-108230000D01*
X166000000Y-82810000D02*
X166000000Y-83310000D01*
X175500000Y-82810000D02*
X166000000Y-82810000D01*
X166000000Y-83310000D02*
X165620000Y-83690000D01*
X175500000Y-82810000D02*
X175500000Y-108230000D01*
%TO.N,/B1*%
X166770000Y-95826346D02*
X155766346Y-106830000D01*
X155766346Y-106830000D02*
X107440000Y-106830000D01*
X107440000Y-106830000D02*
X106040000Y-108230000D01*
X166770000Y-94200000D02*
X166770000Y-95826346D01*
X168160000Y-92810000D02*
X166770000Y-94200000D01*
%TO.N,/B2*%
X155280000Y-108230000D02*
X131040000Y-108230000D01*
X168160000Y-95350000D02*
X155280000Y-108230000D01*
%TD*%
M02*
