%TF.GenerationSoftware,KiCad,Pcbnew,10.0.4*%
%TF.CreationDate,2026-07-15T15:02:28-04:00*%
%TF.ProjectId,STARDANCE-HACKPAD,53544152-4441-44e4-9345-2d4841434b50,rev?*%
%TF.SameCoordinates,Original*%
%TF.FileFunction,Legend,Top*%
%TF.FilePolarity,Positive*%
%FSLAX46Y46*%
G04 Gerber Fmt 4.6, Leading zero omitted, Abs format (unit mm)*
G04 Created by KiCad (PCBNEW 10.0.4) date 2026-07-15 15:02:28*
%MOMM*%
%LPD*%
G01*
G04 APERTURE LIST*
%ADD10C,0.150000*%
%ADD11C,0.120000*%
G04 APERTURE END LIST*
D10*
X127761905Y-123664819D02*
X127761905Y-122664819D01*
X127761905Y-122664819D02*
X128000000Y-122664819D01*
X128000000Y-122664819D02*
X128142857Y-122712438D01*
X128142857Y-122712438D02*
X128238095Y-122807676D01*
X128238095Y-122807676D02*
X128285714Y-122902914D01*
X128285714Y-122902914D02*
X128333333Y-123093390D01*
X128333333Y-123093390D02*
X128333333Y-123236247D01*
X128333333Y-123236247D02*
X128285714Y-123426723D01*
X128285714Y-123426723D02*
X128238095Y-123521961D01*
X128238095Y-123521961D02*
X128142857Y-123617200D01*
X128142857Y-123617200D02*
X128000000Y-123664819D01*
X128000000Y-123664819D02*
X127761905Y-123664819D01*
X128666667Y-122664819D02*
X129285714Y-122664819D01*
X129285714Y-122664819D02*
X128952381Y-123045771D01*
X128952381Y-123045771D02*
X129095238Y-123045771D01*
X129095238Y-123045771D02*
X129190476Y-123093390D01*
X129190476Y-123093390D02*
X129238095Y-123141009D01*
X129238095Y-123141009D02*
X129285714Y-123236247D01*
X129285714Y-123236247D02*
X129285714Y-123474342D01*
X129285714Y-123474342D02*
X129238095Y-123569580D01*
X129238095Y-123569580D02*
X129190476Y-123617200D01*
X129190476Y-123617200D02*
X129095238Y-123664819D01*
X129095238Y-123664819D02*
X128809524Y-123664819D01*
X128809524Y-123664819D02*
X128714286Y-123617200D01*
X128714286Y-123617200D02*
X128666667Y-123569580D01*
X94166666Y-67574819D02*
X94166666Y-68289104D01*
X94166666Y-68289104D02*
X94119047Y-68431961D01*
X94119047Y-68431961D02*
X94023809Y-68527200D01*
X94023809Y-68527200D02*
X93880952Y-68574819D01*
X93880952Y-68574819D02*
X93785714Y-68574819D01*
X95166666Y-68574819D02*
X94595238Y-68574819D01*
X94880952Y-68574819D02*
X94880952Y-67574819D01*
X94880952Y-67574819D02*
X94785714Y-67717676D01*
X94785714Y-67717676D02*
X94690476Y-67812914D01*
X94690476Y-67812914D02*
X94595238Y-67860533D01*
X155261905Y-123664819D02*
X155261905Y-122664819D01*
X155261905Y-122664819D02*
X155500000Y-122664819D01*
X155500000Y-122664819D02*
X155642857Y-122712438D01*
X155642857Y-122712438D02*
X155738095Y-122807676D01*
X155738095Y-122807676D02*
X155785714Y-122902914D01*
X155785714Y-122902914D02*
X155833333Y-123093390D01*
X155833333Y-123093390D02*
X155833333Y-123236247D01*
X155833333Y-123236247D02*
X155785714Y-123426723D01*
X155785714Y-123426723D02*
X155738095Y-123521961D01*
X155738095Y-123521961D02*
X155642857Y-123617200D01*
X155642857Y-123617200D02*
X155500000Y-123664819D01*
X155500000Y-123664819D02*
X155261905Y-123664819D01*
X156214286Y-122760057D02*
X156261905Y-122712438D01*
X156261905Y-122712438D02*
X156357143Y-122664819D01*
X156357143Y-122664819D02*
X156595238Y-122664819D01*
X156595238Y-122664819D02*
X156690476Y-122712438D01*
X156690476Y-122712438D02*
X156738095Y-122760057D01*
X156738095Y-122760057D02*
X156785714Y-122855295D01*
X156785714Y-122855295D02*
X156785714Y-122950533D01*
X156785714Y-122950533D02*
X156738095Y-123093390D01*
X156738095Y-123093390D02*
X156166667Y-123664819D01*
X156166667Y-123664819D02*
X156785714Y-123664819D01*
X154166667Y-105843200D02*
X154309524Y-105890819D01*
X154309524Y-105890819D02*
X154547619Y-105890819D01*
X154547619Y-105890819D02*
X154642857Y-105843200D01*
X154642857Y-105843200D02*
X154690476Y-105795580D01*
X154690476Y-105795580D02*
X154738095Y-105700342D01*
X154738095Y-105700342D02*
X154738095Y-105605104D01*
X154738095Y-105605104D02*
X154690476Y-105509866D01*
X154690476Y-105509866D02*
X154642857Y-105462247D01*
X154642857Y-105462247D02*
X154547619Y-105414628D01*
X154547619Y-105414628D02*
X154357143Y-105367009D01*
X154357143Y-105367009D02*
X154261905Y-105319390D01*
X154261905Y-105319390D02*
X154214286Y-105271771D01*
X154214286Y-105271771D02*
X154166667Y-105176533D01*
X154166667Y-105176533D02*
X154166667Y-105081295D01*
X154166667Y-105081295D02*
X154214286Y-104986057D01*
X154214286Y-104986057D02*
X154261905Y-104938438D01*
X154261905Y-104938438D02*
X154357143Y-104890819D01*
X154357143Y-104890819D02*
X154595238Y-104890819D01*
X154595238Y-104890819D02*
X154738095Y-104938438D01*
X155071429Y-104890819D02*
X155309524Y-105890819D01*
X155309524Y-105890819D02*
X155500000Y-105176533D01*
X155500000Y-105176533D02*
X155690476Y-105890819D01*
X155690476Y-105890819D02*
X155928572Y-104890819D01*
X156738095Y-105224152D02*
X156738095Y-105890819D01*
X156500000Y-104843200D02*
X156261905Y-105557485D01*
X156261905Y-105557485D02*
X156880952Y-105557485D01*
X102166667Y-105843200D02*
X102309524Y-105890819D01*
X102309524Y-105890819D02*
X102547619Y-105890819D01*
X102547619Y-105890819D02*
X102642857Y-105843200D01*
X102642857Y-105843200D02*
X102690476Y-105795580D01*
X102690476Y-105795580D02*
X102738095Y-105700342D01*
X102738095Y-105700342D02*
X102738095Y-105605104D01*
X102738095Y-105605104D02*
X102690476Y-105509866D01*
X102690476Y-105509866D02*
X102642857Y-105462247D01*
X102642857Y-105462247D02*
X102547619Y-105414628D01*
X102547619Y-105414628D02*
X102357143Y-105367009D01*
X102357143Y-105367009D02*
X102261905Y-105319390D01*
X102261905Y-105319390D02*
X102214286Y-105271771D01*
X102214286Y-105271771D02*
X102166667Y-105176533D01*
X102166667Y-105176533D02*
X102166667Y-105081295D01*
X102166667Y-105081295D02*
X102214286Y-104986057D01*
X102214286Y-104986057D02*
X102261905Y-104938438D01*
X102261905Y-104938438D02*
X102357143Y-104890819D01*
X102357143Y-104890819D02*
X102595238Y-104890819D01*
X102595238Y-104890819D02*
X102738095Y-104938438D01*
X103071429Y-104890819D02*
X103309524Y-105890819D01*
X103309524Y-105890819D02*
X103500000Y-105176533D01*
X103500000Y-105176533D02*
X103690476Y-105890819D01*
X103690476Y-105890819D02*
X103928572Y-104890819D01*
X104261905Y-104986057D02*
X104309524Y-104938438D01*
X104309524Y-104938438D02*
X104404762Y-104890819D01*
X104404762Y-104890819D02*
X104642857Y-104890819D01*
X104642857Y-104890819D02*
X104738095Y-104938438D01*
X104738095Y-104938438D02*
X104785714Y-104986057D01*
X104785714Y-104986057D02*
X104833333Y-105081295D01*
X104833333Y-105081295D02*
X104833333Y-105176533D01*
X104833333Y-105176533D02*
X104785714Y-105319390D01*
X104785714Y-105319390D02*
X104214286Y-105890819D01*
X104214286Y-105890819D02*
X104833333Y-105890819D01*
X103761905Y-123664819D02*
X103761905Y-122664819D01*
X103761905Y-122664819D02*
X104000000Y-122664819D01*
X104000000Y-122664819D02*
X104142857Y-122712438D01*
X104142857Y-122712438D02*
X104238095Y-122807676D01*
X104238095Y-122807676D02*
X104285714Y-122902914D01*
X104285714Y-122902914D02*
X104333333Y-123093390D01*
X104333333Y-123093390D02*
X104333333Y-123236247D01*
X104333333Y-123236247D02*
X104285714Y-123426723D01*
X104285714Y-123426723D02*
X104238095Y-123521961D01*
X104238095Y-123521961D02*
X104142857Y-123617200D01*
X104142857Y-123617200D02*
X104000000Y-123664819D01*
X104000000Y-123664819D02*
X103761905Y-123664819D01*
X105285714Y-123664819D02*
X104714286Y-123664819D01*
X105000000Y-123664819D02*
X105000000Y-122664819D01*
X105000000Y-122664819D02*
X104904762Y-122807676D01*
X104904762Y-122807676D02*
X104809524Y-122902914D01*
X104809524Y-122902914D02*
X104714286Y-122950533D01*
X127666667Y-105843200D02*
X127809524Y-105890819D01*
X127809524Y-105890819D02*
X128047619Y-105890819D01*
X128047619Y-105890819D02*
X128142857Y-105843200D01*
X128142857Y-105843200D02*
X128190476Y-105795580D01*
X128190476Y-105795580D02*
X128238095Y-105700342D01*
X128238095Y-105700342D02*
X128238095Y-105605104D01*
X128238095Y-105605104D02*
X128190476Y-105509866D01*
X128190476Y-105509866D02*
X128142857Y-105462247D01*
X128142857Y-105462247D02*
X128047619Y-105414628D01*
X128047619Y-105414628D02*
X127857143Y-105367009D01*
X127857143Y-105367009D02*
X127761905Y-105319390D01*
X127761905Y-105319390D02*
X127714286Y-105271771D01*
X127714286Y-105271771D02*
X127666667Y-105176533D01*
X127666667Y-105176533D02*
X127666667Y-105081295D01*
X127666667Y-105081295D02*
X127714286Y-104986057D01*
X127714286Y-104986057D02*
X127761905Y-104938438D01*
X127761905Y-104938438D02*
X127857143Y-104890819D01*
X127857143Y-104890819D02*
X128095238Y-104890819D01*
X128095238Y-104890819D02*
X128238095Y-104938438D01*
X128571429Y-104890819D02*
X128809524Y-105890819D01*
X128809524Y-105890819D02*
X129000000Y-105176533D01*
X129000000Y-105176533D02*
X129190476Y-105890819D01*
X129190476Y-105890819D02*
X129428572Y-104890819D01*
X129714286Y-104890819D02*
X130333333Y-104890819D01*
X130333333Y-104890819D02*
X130000000Y-105271771D01*
X130000000Y-105271771D02*
X130142857Y-105271771D01*
X130142857Y-105271771D02*
X130238095Y-105319390D01*
X130238095Y-105319390D02*
X130285714Y-105367009D01*
X130285714Y-105367009D02*
X130333333Y-105462247D01*
X130333333Y-105462247D02*
X130333333Y-105700342D01*
X130333333Y-105700342D02*
X130285714Y-105795580D01*
X130285714Y-105795580D02*
X130238095Y-105843200D01*
X130238095Y-105843200D02*
X130142857Y-105890819D01*
X130142857Y-105890819D02*
X129857143Y-105890819D01*
X129857143Y-105890819D02*
X129761905Y-105843200D01*
X129761905Y-105843200D02*
X129714286Y-105795580D01*
X169994819Y-94841904D02*
X170804342Y-94841904D01*
X170804342Y-94841904D02*
X170899580Y-94794285D01*
X170899580Y-94794285D02*
X170947200Y-94746666D01*
X170947200Y-94746666D02*
X170994819Y-94651428D01*
X170994819Y-94651428D02*
X170994819Y-94460952D01*
X170994819Y-94460952D02*
X170947200Y-94365714D01*
X170947200Y-94365714D02*
X170899580Y-94318095D01*
X170899580Y-94318095D02*
X170804342Y-94270476D01*
X170804342Y-94270476D02*
X169994819Y-94270476D01*
X170994819Y-93270476D02*
X170994819Y-93841904D01*
X170994819Y-93556190D02*
X169994819Y-93556190D01*
X169994819Y-93556190D02*
X170137676Y-93651428D01*
X170137676Y-93651428D02*
X170232914Y-93746666D01*
X170232914Y-93746666D02*
X170280533Y-93841904D01*
%TO.C,D3*%
D11*
X124850000Y-123935000D02*
X132150000Y-123935000D01*
X124850000Y-126960000D02*
X124850000Y-123935000D01*
X124850000Y-126960000D02*
X125575000Y-127685000D01*
X132150000Y-123935000D02*
X132150000Y-127685000D01*
X132150000Y-127685000D02*
X125575000Y-127685000D01*
X125775000Y-127260000D02*
X125925000Y-127460000D01*
X125625000Y-127460000D01*
X125775000Y-127260000D01*
G36*
X125925000Y-127460000D02*
G01*
X125625000Y-127460000D01*
X125775000Y-127260000D01*
X125925000Y-127460000D01*
G37*
%TO.C,J1*%
X93120000Y-69120000D02*
X94500000Y-69120000D01*
X93120000Y-70500000D02*
X93120000Y-69120000D01*
X93120000Y-71770000D02*
X93120000Y-79500000D01*
X93120000Y-71770000D02*
X95880000Y-71770000D01*
X93120000Y-79500000D02*
X95880000Y-79500000D01*
X95880000Y-71770000D02*
X95880000Y-79500000D01*
%TO.C,D2*%
X152350000Y-123935000D02*
X159650000Y-123935000D01*
X152350000Y-126960000D02*
X152350000Y-123935000D01*
X152350000Y-126960000D02*
X153075000Y-127685000D01*
X159650000Y-123935000D02*
X159650000Y-127685000D01*
X159650000Y-127685000D02*
X153075000Y-127685000D01*
X153275000Y-127260000D02*
X153425000Y-127460000D01*
X153125000Y-127460000D01*
X153275000Y-127260000D01*
G36*
X153425000Y-127460000D02*
G01*
X153125000Y-127460000D01*
X153275000Y-127260000D01*
X153425000Y-127460000D01*
G37*
%TO.C,SW4*%
X148515000Y-106325000D02*
X162485000Y-106325000D01*
X148515000Y-120295000D02*
X148515000Y-106325000D01*
X162485000Y-106325000D02*
X162485000Y-120295000D01*
X162485000Y-120295000D02*
X148515000Y-120295000D01*
%TO.C,SW2*%
X96515000Y-106325000D02*
X110485000Y-106325000D01*
X96515000Y-120295000D02*
X96515000Y-106325000D01*
X110485000Y-106325000D02*
X110485000Y-120295000D01*
X110485000Y-120295000D02*
X96515000Y-120295000D01*
%TO.C,D1*%
X100850000Y-123935000D02*
X108150000Y-123935000D01*
X100850000Y-126960000D02*
X100850000Y-123935000D01*
X100850000Y-126960000D02*
X101575000Y-127685000D01*
X108150000Y-123935000D02*
X108150000Y-127685000D01*
X108150000Y-127685000D02*
X101575000Y-127685000D01*
X101775000Y-127260000D02*
X101925000Y-127460000D01*
X101625000Y-127460000D01*
X101775000Y-127260000D01*
G36*
X101925000Y-127460000D02*
G01*
X101625000Y-127460000D01*
X101775000Y-127260000D01*
X101925000Y-127460000D01*
G37*
%TO.C,SW3*%
X122015000Y-106325000D02*
X135985000Y-106325000D01*
X122015000Y-120295000D02*
X122015000Y-106325000D01*
X135985000Y-106325000D02*
X135985000Y-120295000D01*
X135985000Y-120295000D02*
X122015000Y-120295000D01*
%TO.C,U1*%
X151540000Y-91430000D02*
X151540000Y-96730000D01*
X166890000Y-91430000D02*
X151540000Y-91430000D01*
X166890000Y-91430000D02*
X166890000Y-94080000D01*
X166890000Y-94080000D02*
X169540000Y-94080000D01*
X168160000Y-91430000D02*
X169540000Y-91430000D01*
X169540000Y-91430000D02*
X169540000Y-92810000D01*
X169540000Y-94080000D02*
X169540000Y-96730000D01*
X169540000Y-96730000D02*
X151540000Y-96730000D01*
%TD*%
M02*
